<mxfile host="app.diagrams.net" modified="2020-12-27T09:07:01.318Z" agent="5.0 (Windows NT 10.0; Win64; x64) AppleWebKit/537.36 (KHTML, like Gecko) Chrome/87.0.4280.88 Safari/537.36" etag="6DHzjh9zmEyi-ShjSL9_" version="14.1.2" type="github">
  <diagram id="ZVyBo8nw6YCNj5e1UvPp" name="Page-1">
    <mxGraphModel dx="1185" dy="608" grid="1" gridSize="10" guides="1" tooltips="1" connect="1" arrows="1" fold="1" page="1" pageScale="1" pageWidth="827" pageHeight="1169" math="0" shadow="0">
      <root>
        <mxCell id="0" />
        <mxCell id="1" parent="0" />
        <mxCell id="w9DCA4Hgo60gSGukFtPC-17" style="edgeStyle=orthogonalEdgeStyle;rounded=0;orthogonalLoop=1;jettySize=auto;html=1;endArrow=open;endFill=0;endSize=8;dashed=1;" edge="1" parent="1" source="w9DCA4Hgo60gSGukFtPC-4" target="w9DCA4Hgo60gSGukFtPC-13">
          <mxGeometry relative="1" as="geometry" />
        </mxCell>
        <mxCell id="w9DCA4Hgo60gSGukFtPC-4" value="&lt;p style=&quot;margin: 0px ; margin-top: 4px ; text-align: center&quot;&gt;&amp;lt;&amp;lt;boundary&amp;gt;&amp;gt;&lt;br&gt;&lt;b&gt;FormDangNhap&lt;/b&gt;&lt;/p&gt;&lt;hr size=&quot;1&quot;&gt;&lt;p style=&quot;margin: 0px ; margin-left: 4px&quot;&gt;+ dangNhap()&lt;br&gt;+ doiPassword()&lt;/p&gt;" style="verticalAlign=top;align=left;overflow=fill;fontSize=12;fontFamily=Helvetica;html=1;" vertex="1" parent="1">
          <mxGeometry x="160" y="200" width="160" height="80" as="geometry" />
        </mxCell>
        <mxCell id="w9DCA4Hgo60gSGukFtPC-18" style="edgeStyle=orthogonalEdgeStyle;rounded=0;orthogonalLoop=1;jettySize=auto;html=1;endArrow=classic;endFill=1;endSize=6;" edge="1" parent="1" source="w9DCA4Hgo60gSGukFtPC-13" target="w9DCA4Hgo60gSGukFtPC-14">
          <mxGeometry relative="1" as="geometry" />
        </mxCell>
        <mxCell id="w9DCA4Hgo60gSGukFtPC-13" value="&lt;p style=&quot;margin: 0px ; margin-top: 4px ; text-align: center&quot;&gt;&amp;lt;&amp;lt;control&amp;gt;&amp;gt;&lt;br&gt;&lt;b&gt;DangNhap&lt;/b&gt;&lt;/p&gt;&lt;hr size=&quot;1&quot;&gt;&lt;p style=&quot;margin: 0px ; margin-left: 4px&quot;&gt;+ kiemTraTK( String user, String password)&lt;br&gt;+ doiPassword( String password)&lt;/p&gt;" style="verticalAlign=top;align=left;overflow=fill;fontSize=12;fontFamily=Helvetica;html=1;" vertex="1" parent="1">
          <mxGeometry x="360" y="200" width="240" height="80" as="geometry" />
        </mxCell>
        <mxCell id="w9DCA4Hgo60gSGukFtPC-14" value="&lt;p style=&quot;margin: 0px ; margin-top: 4px ; text-align: center&quot;&gt;&amp;lt;&amp;lt;entity&amp;gt;&amp;gt;&lt;br&gt;&lt;b&gt;QuanLy&lt;/b&gt;&lt;/p&gt;&lt;hr size=&quot;1&quot;&gt;&lt;p style=&quot;margin: 0px ; margin-left: 4px&quot;&gt;- String: user&lt;br&gt;- String: password&lt;/p&gt;&lt;hr size=&quot;1&quot;&gt;&lt;p style=&quot;margin: 0px ; margin-left: 4px&quot;&gt;+ kiemTraTK()&lt;br&gt;+ doiPassword()&lt;/p&gt;" style="verticalAlign=top;align=left;overflow=fill;fontSize=12;fontFamily=Helvetica;html=1;" vertex="1" parent="1">
          <mxGeometry x="640" y="180" width="160" height="120" as="geometry" />
        </mxCell>
        <mxCell id="w9DCA4Hgo60gSGukFtPC-16" style="edgeStyle=orthogonalEdgeStyle;rounded=0;orthogonalLoop=1;jettySize=auto;html=1;endArrow=open;endFill=0;endSize=8;" edge="1" parent="1" source="w9DCA4Hgo60gSGukFtPC-15" target="w9DCA4Hgo60gSGukFtPC-4">
          <mxGeometry relative="1" as="geometry" />
        </mxCell>
        <mxCell id="w9DCA4Hgo60gSGukFtPC-15" value="Người quản lý" style="shape=umlActor;verticalLabelPosition=bottom;verticalAlign=top;html=1;outlineConnect=0;" vertex="1" parent="1">
          <mxGeometry x="90" y="210" width="30" height="60" as="geometry" />
        </mxCell>
      </root>
    </mxGraphModel>
  </diagram>
</mxfile>
